<mxfile host="app.diagrams.net" agent="Mozilla/5.0 (X11; Linux x86_64) AppleWebKit/537.36 (KHTML, like Gecko) Chrome/126.0.0.0 Safari/537.36" version="24.7.6">
  <diagram name="Page-1" id="1ZCH-90XeY1f-6l5d64w">
    <mxGraphModel dx="896" dy="491" grid="1" gridSize="10" guides="1" tooltips="1" connect="1" arrows="1" fold="1" page="1" pageScale="1" pageWidth="850" pageHeight="1100" math="0" shadow="0">
      <root>
        <mxCell id="0" />
        <mxCell id="1" parent="0" />
        <mxCell id="SCl_2yA6YjaPcPXo50z0-15" style="edgeStyle=orthogonalEdgeStyle;rounded=0;orthogonalLoop=1;jettySize=auto;html=1;exitX=0;exitY=0.75;exitDx=0;exitDy=0;entryX=1;entryY=0.5;entryDx=0;entryDy=0;" edge="1" parent="1" source="SCl_2yA6YjaPcPXo50z0-1" target="SCl_2yA6YjaPcPXo50z0-9">
          <mxGeometry relative="1" as="geometry" />
        </mxCell>
        <mxCell id="SCl_2yA6YjaPcPXo50z0-16" style="edgeStyle=orthogonalEdgeStyle;rounded=0;orthogonalLoop=1;jettySize=auto;html=1;exitX=0.5;exitY=1;exitDx=0;exitDy=0;entryX=0.5;entryY=0;entryDx=0;entryDy=0;" edge="1" parent="1" source="SCl_2yA6YjaPcPXo50z0-1" target="SCl_2yA6YjaPcPXo50z0-3">
          <mxGeometry relative="1" as="geometry" />
        </mxCell>
        <mxCell id="SCl_2yA6YjaPcPXo50z0-17" style="edgeStyle=orthogonalEdgeStyle;rounded=0;orthogonalLoop=1;jettySize=auto;html=1;entryX=0.5;entryY=1;entryDx=0;entryDy=0;" edge="1" parent="1">
          <mxGeometry relative="1" as="geometry">
            <mxPoint x="410" y="240" as="sourcePoint" />
            <mxPoint x="410" y="160" as="targetPoint" />
          </mxGeometry>
        </mxCell>
        <mxCell id="SCl_2yA6YjaPcPXo50z0-1" value="Master&lt;div&gt;Controller&lt;/div&gt;" style="rounded=0;whiteSpace=wrap;html=1;" vertex="1" parent="1">
          <mxGeometry x="360" y="240" width="120" height="120" as="geometry" />
        </mxCell>
        <mxCell id="SCl_2yA6YjaPcPXo50z0-3" value="Engine&lt;div&gt;Manager&lt;/div&gt;" style="whiteSpace=wrap;html=1;aspect=fixed;" vertex="1" parent="1">
          <mxGeometry x="360" y="440" width="120" height="120" as="geometry" />
        </mxCell>
        <mxCell id="SCl_2yA6YjaPcPXo50z0-12" style="edgeStyle=orthogonalEdgeStyle;rounded=0;orthogonalLoop=1;jettySize=auto;html=1;entryX=0;entryY=0.5;entryDx=0;entryDy=0;exitX=0.5;exitY=0;exitDx=0;exitDy=0;" edge="1" parent="1" source="SCl_2yA6YjaPcPXo50z0-4" target="SCl_2yA6YjaPcPXo50z0-5">
          <mxGeometry relative="1" as="geometry" />
        </mxCell>
        <mxCell id="SCl_2yA6YjaPcPXo50z0-13" style="edgeStyle=orthogonalEdgeStyle;rounded=0;orthogonalLoop=1;jettySize=auto;html=1;entryX=0;entryY=0.5;entryDx=0;entryDy=0;" edge="1" parent="1" source="SCl_2yA6YjaPcPXo50z0-4" target="SCl_2yA6YjaPcPXo50z0-9">
          <mxGeometry relative="1" as="geometry" />
        </mxCell>
        <mxCell id="SCl_2yA6YjaPcPXo50z0-4" value="Sensors" style="rounded=0;whiteSpace=wrap;html=1;" vertex="1" parent="1">
          <mxGeometry x="20" y="330" width="80" height="80" as="geometry" />
        </mxCell>
        <mxCell id="SCl_2yA6YjaPcPXo50z0-11" style="edgeStyle=orthogonalEdgeStyle;rounded=0;orthogonalLoop=1;jettySize=auto;html=1;entryX=0;entryY=0.5;entryDx=0;entryDy=0;" edge="1" parent="1" source="SCl_2yA6YjaPcPXo50z0-5" target="SCl_2yA6YjaPcPXo50z0-1">
          <mxGeometry relative="1" as="geometry" />
        </mxCell>
        <mxCell id="SCl_2yA6YjaPcPXo50z0-5" value="Data&lt;div&gt;Capture&lt;/div&gt;" style="whiteSpace=wrap;html=1;aspect=fixed;" vertex="1" parent="1">
          <mxGeometry x="180" y="160" width="80" height="80" as="geometry" />
        </mxCell>
        <mxCell id="SCl_2yA6YjaPcPXo50z0-8" value="WIFI&lt;div&gt;Manager&lt;/div&gt;" style="whiteSpace=wrap;html=1;aspect=fixed;" vertex="1" parent="1">
          <mxGeometry x="380" y="80" width="80" height="80" as="geometry" />
        </mxCell>
        <mxCell id="SCl_2yA6YjaPcPXo50z0-9" value="Control&lt;div&gt;Manager&lt;/div&gt;" style="whiteSpace=wrap;html=1;aspect=fixed;" vertex="1" parent="1">
          <mxGeometry x="160" y="310" width="120" height="120" as="geometry" />
        </mxCell>
        <mxCell id="SCl_2yA6YjaPcPXo50z0-14" style="edgeStyle=orthogonalEdgeStyle;rounded=0;orthogonalLoop=1;jettySize=auto;html=1;exitX=0.5;exitY=1;exitDx=0;exitDy=0;entryX=0;entryY=0.583;entryDx=0;entryDy=0;entryPerimeter=0;" edge="1" parent="1" source="SCl_2yA6YjaPcPXo50z0-9" target="SCl_2yA6YjaPcPXo50z0-3">
          <mxGeometry relative="1" as="geometry" />
        </mxCell>
        <mxCell id="SCl_2yA6YjaPcPXo50z0-18" style="edgeStyle=orthogonalEdgeStyle;rounded=0;orthogonalLoop=1;jettySize=auto;html=1;exitX=0.75;exitY=1;exitDx=0;exitDy=0;entryX=0.668;entryY=0;entryDx=0;entryDy=0;entryPerimeter=0;" edge="1" parent="1">
          <mxGeometry relative="1" as="geometry">
            <mxPoint x="430" y="160" as="sourcePoint" />
            <mxPoint x="430.1600000000001" y="240" as="targetPoint" />
          </mxGeometry>
        </mxCell>
      </root>
    </mxGraphModel>
  </diagram>
</mxfile>
